<mxfile host="app.diagrams.net" modified="2023-09-16T06:50:47.181Z" agent="Mozilla/5.0 (Windows NT 10.0; Win64; x64) AppleWebKit/537.36 (KHTML, like Gecko) Chrome/116.0.0.0 Safari/537.36" etag="8ocPd5gyyzxJi1Pxq4yA" version="21.7.5" type="github">
  <diagram id="C5RBs43oDa-KdzZeNtuy" name="Page-1">
    <mxGraphModel dx="830" dy="447" grid="1" gridSize="10" guides="1" tooltips="1" connect="1" arrows="1" fold="1" page="1" pageScale="1" pageWidth="827" pageHeight="1169" math="0" shadow="0">
      <root>
        <mxCell id="WIyWlLk6GJQsqaUBKTNV-0" />
        <mxCell id="WIyWlLk6GJQsqaUBKTNV-1" parent="WIyWlLk6GJQsqaUBKTNV-0" />
        <mxCell id="WIyWlLk6GJQsqaUBKTNV-2" value="" style="rounded=1;html=1;jettySize=auto;orthogonalLoop=1;fontSize=11;endArrow=block;endFill=0;endSize=8;strokeWidth=1;shadow=0;labelBackgroundColor=none;edgeStyle=orthogonalEdgeStyle;strokeColor=#A8201A;fontColor=default;" parent="WIyWlLk6GJQsqaUBKTNV-1" source="WIyWlLk6GJQsqaUBKTNV-3" target="AXFKlg1v9iwPmCaXSnl4-1" edge="1">
          <mxGeometry relative="1" as="geometry">
            <mxPoint x="222" y="195" as="targetPoint" />
          </mxGeometry>
        </mxCell>
        <mxCell id="AXFKlg1v9iwPmCaXSnl4-46" style="edgeStyle=orthogonalEdgeStyle;rounded=0;orthogonalLoop=1;jettySize=auto;html=1;entryX=0;entryY=0.5;entryDx=0;entryDy=0;" edge="1" parent="WIyWlLk6GJQsqaUBKTNV-1" source="WIyWlLk6GJQsqaUBKTNV-3" target="WIyWlLk6GJQsqaUBKTNV-7">
          <mxGeometry relative="1" as="geometry" />
        </mxCell>
        <mxCell id="WIyWlLk6GJQsqaUBKTNV-3" value="vite dev" style="rounded=1;whiteSpace=wrap;html=1;fontSize=12;glass=0;strokeWidth=1;shadow=0;labelBackgroundColor=none;fillColor=#FAE5C7;strokeColor=#0F8B8D;fontColor=#143642;" parent="WIyWlLk6GJQsqaUBKTNV-1" vertex="1">
          <mxGeometry x="160" y="80" width="170" height="40" as="geometry" />
        </mxCell>
        <mxCell id="WIyWlLk6GJQsqaUBKTNV-7" value="&amp;nbsp;interface IParams {&lt;br&gt;&lt;span style=&quot;white-space: pre;&quot;&gt;&#x9;&lt;/span&gt;url: string&lt;br&gt;&lt;span style=&quot;white-space: pre;&quot;&gt;&#x9;&lt;/span&gt;dir: string&lt;br&gt;&lt;div style=&quot;&quot;&gt;&lt;span style=&quot;background-color: initial;&quot;&gt;&amp;nbsp;}&lt;/span&gt;&lt;/div&gt;" style="rounded=1;whiteSpace=wrap;html=1;fontSize=12;glass=0;strokeWidth=1;shadow=0;labelBackgroundColor=none;fillColor=#FAE5C7;strokeColor=#0F8B8D;fontColor=#143642;align=left;fontFamily=Helvetica;" parent="WIyWlLk6GJQsqaUBKTNV-1" vertex="1">
          <mxGeometry x="520" y="65" width="120" height="70" as="geometry" />
        </mxCell>
        <mxCell id="AXFKlg1v9iwPmCaXSnl4-3" style="edgeStyle=orthogonalEdgeStyle;rounded=0;orthogonalLoop=1;jettySize=auto;html=1;entryX=0.5;entryY=0;entryDx=0;entryDy=0;" edge="1" parent="WIyWlLk6GJQsqaUBKTNV-1" source="AXFKlg1v9iwPmCaXSnl4-1" target="AXFKlg1v9iwPmCaXSnl4-2">
          <mxGeometry relative="1" as="geometry" />
        </mxCell>
        <mxCell id="AXFKlg1v9iwPmCaXSnl4-1" value="请求openApi.json&lt;br&gt;" style="rounded=1;whiteSpace=wrap;html=1;fontSize=12;glass=0;strokeWidth=1;shadow=0;labelBackgroundColor=none;fillColor=#FAE5C7;strokeColor=#0F8B8D;fontColor=#143642;" vertex="1" parent="WIyWlLk6GJQsqaUBKTNV-1">
          <mxGeometry x="185" y="170" width="120" height="30" as="geometry" />
        </mxCell>
        <mxCell id="AXFKlg1v9iwPmCaXSnl4-16" style="edgeStyle=orthogonalEdgeStyle;rounded=0;orthogonalLoop=1;jettySize=auto;html=1;entryX=0.5;entryY=0;entryDx=0;entryDy=0;" edge="1" parent="WIyWlLk6GJQsqaUBKTNV-1" source="AXFKlg1v9iwPmCaXSnl4-2" target="AXFKlg1v9iwPmCaXSnl4-8">
          <mxGeometry relative="1" as="geometry" />
        </mxCell>
        <mxCell id="AXFKlg1v9iwPmCaXSnl4-17" style="edgeStyle=orthogonalEdgeStyle;rounded=0;orthogonalLoop=1;jettySize=auto;html=1;entryX=0.491;entryY=-0.058;entryDx=0;entryDy=0;entryPerimeter=0;" edge="1" parent="WIyWlLk6GJQsqaUBKTNV-1" source="AXFKlg1v9iwPmCaXSnl4-2" target="AXFKlg1v9iwPmCaXSnl4-6">
          <mxGeometry relative="1" as="geometry" />
        </mxCell>
        <mxCell id="AXFKlg1v9iwPmCaXSnl4-18" style="edgeStyle=orthogonalEdgeStyle;rounded=0;orthogonalLoop=1;jettySize=auto;html=1;entryX=0.5;entryY=0;entryDx=0;entryDy=0;" edge="1" parent="WIyWlLk6GJQsqaUBKTNV-1" source="AXFKlg1v9iwPmCaXSnl4-2" target="AXFKlg1v9iwPmCaXSnl4-5">
          <mxGeometry relative="1" as="geometry" />
        </mxCell>
        <mxCell id="AXFKlg1v9iwPmCaXSnl4-2" value="判断openApi version" style="rounded=1;whiteSpace=wrap;html=1;fontSize=12;glass=0;strokeWidth=1;shadow=0;labelBackgroundColor=none;fillColor=#FAE5C7;strokeColor=#0F8B8D;fontColor=#143642;" vertex="1" parent="WIyWlLk6GJQsqaUBKTNV-1">
          <mxGeometry x="180" y="250" width="130" height="30" as="geometry" />
        </mxCell>
        <mxCell id="AXFKlg1v9iwPmCaXSnl4-15" value="" style="edgeStyle=orthogonalEdgeStyle;rounded=0;orthogonalLoop=1;jettySize=auto;html=1;" edge="1" parent="WIyWlLk6GJQsqaUBKTNV-1" source="AXFKlg1v9iwPmCaXSnl4-5">
          <mxGeometry relative="1" as="geometry">
            <mxPoint x="245" y="370" as="targetPoint" />
          </mxGeometry>
        </mxCell>
        <mxCell id="AXFKlg1v9iwPmCaXSnl4-5" value="openApi 2.0" style="rounded=1;whiteSpace=wrap;html=1;fontSize=12;glass=0;strokeWidth=1;shadow=0;labelBackgroundColor=none;fillColor=#FAE5C7;strokeColor=#0F8B8D;fontColor=#143642;" vertex="1" parent="WIyWlLk6GJQsqaUBKTNV-1">
          <mxGeometry x="180" y="310" width="130" height="30" as="geometry" />
        </mxCell>
        <mxCell id="AXFKlg1v9iwPmCaXSnl4-23" style="edgeStyle=orthogonalEdgeStyle;rounded=0;orthogonalLoop=1;jettySize=auto;html=1;entryX=0.5;entryY=0;entryDx=0;entryDy=0;" edge="1" parent="WIyWlLk6GJQsqaUBKTNV-1" source="AXFKlg1v9iwPmCaXSnl4-6" target="AXFKlg1v9iwPmCaXSnl4-21">
          <mxGeometry relative="1" as="geometry" />
        </mxCell>
        <mxCell id="AXFKlg1v9iwPmCaXSnl4-6" value="openApi 2.1" style="rounded=1;whiteSpace=wrap;html=1;fontSize=12;glass=0;strokeWidth=1;shadow=0;labelBackgroundColor=none;fillColor=#FAE5C7;strokeColor=#0F8B8D;fontColor=#143642;" vertex="1" parent="WIyWlLk6GJQsqaUBKTNV-1">
          <mxGeometry x="320" y="310" width="120" height="30" as="geometry" />
        </mxCell>
        <mxCell id="AXFKlg1v9iwPmCaXSnl4-22" style="edgeStyle=orthogonalEdgeStyle;rounded=0;orthogonalLoop=1;jettySize=auto;html=1;entryX=0.5;entryY=0;entryDx=0;entryDy=0;" edge="1" parent="WIyWlLk6GJQsqaUBKTNV-1" source="AXFKlg1v9iwPmCaXSnl4-8" target="AXFKlg1v9iwPmCaXSnl4-20">
          <mxGeometry relative="1" as="geometry" />
        </mxCell>
        <mxCell id="AXFKlg1v9iwPmCaXSnl4-8" value="openApi 3.0" style="rounded=1;whiteSpace=wrap;html=1;fontSize=12;glass=0;strokeWidth=1;shadow=0;labelBackgroundColor=none;fillColor=#FAE5C7;strokeColor=#0F8B8D;fontColor=#143642;" vertex="1" parent="WIyWlLk6GJQsqaUBKTNV-1">
          <mxGeometry x="50" y="310" width="110" height="30" as="geometry" />
        </mxCell>
        <mxCell id="AXFKlg1v9iwPmCaXSnl4-33" style="edgeStyle=orthogonalEdgeStyle;rounded=0;orthogonalLoop=1;jettySize=auto;html=1;entryX=0.5;entryY=0;entryDx=0;entryDy=0;" edge="1" parent="WIyWlLk6GJQsqaUBKTNV-1" source="AXFKlg1v9iwPmCaXSnl4-19" target="AXFKlg1v9iwPmCaXSnl4-30">
          <mxGeometry relative="1" as="geometry" />
        </mxCell>
        <mxCell id="AXFKlg1v9iwPmCaXSnl4-19" value="2.0 transform" style="rounded=1;whiteSpace=wrap;html=1;fontSize=12;glass=0;strokeWidth=1;shadow=0;labelBackgroundColor=none;fillColor=#FAE5C7;strokeColor=#0F8B8D;fontColor=#143642;" vertex="1" parent="WIyWlLk6GJQsqaUBKTNV-1">
          <mxGeometry x="180" y="370" width="130" height="30" as="geometry" />
        </mxCell>
        <mxCell id="AXFKlg1v9iwPmCaXSnl4-35" style="edgeStyle=orthogonalEdgeStyle;rounded=0;orthogonalLoop=1;jettySize=auto;html=1;" edge="1" parent="WIyWlLk6GJQsqaUBKTNV-1" source="AXFKlg1v9iwPmCaXSnl4-20" target="AXFKlg1v9iwPmCaXSnl4-30">
          <mxGeometry relative="1" as="geometry">
            <Array as="points">
              <mxPoint x="105" y="420" />
              <mxPoint x="245" y="420" />
            </Array>
          </mxGeometry>
        </mxCell>
        <mxCell id="AXFKlg1v9iwPmCaXSnl4-20" value="3.0 transform" style="rounded=1;whiteSpace=wrap;html=1;fontSize=12;glass=0;strokeWidth=1;shadow=0;labelBackgroundColor=none;fillColor=#FAE5C7;strokeColor=#0F8B8D;fontColor=#143642;" vertex="1" parent="WIyWlLk6GJQsqaUBKTNV-1">
          <mxGeometry x="50" y="370" width="110" height="30" as="geometry" />
        </mxCell>
        <mxCell id="AXFKlg1v9iwPmCaXSnl4-34" style="edgeStyle=orthogonalEdgeStyle;rounded=0;orthogonalLoop=1;jettySize=auto;html=1;entryX=0.5;entryY=0;entryDx=0;entryDy=0;" edge="1" parent="WIyWlLk6GJQsqaUBKTNV-1" source="AXFKlg1v9iwPmCaXSnl4-21" target="AXFKlg1v9iwPmCaXSnl4-30">
          <mxGeometry relative="1" as="geometry">
            <Array as="points">
              <mxPoint x="380" y="420" />
              <mxPoint x="245" y="420" />
            </Array>
          </mxGeometry>
        </mxCell>
        <mxCell id="AXFKlg1v9iwPmCaXSnl4-21" value="2.1 transform" style="rounded=1;whiteSpace=wrap;html=1;fontSize=12;glass=0;strokeWidth=1;shadow=0;labelBackgroundColor=none;fillColor=#FAE5C7;strokeColor=#0F8B8D;fontColor=#143642;" vertex="1" parent="WIyWlLk6GJQsqaUBKTNV-1">
          <mxGeometry x="320" y="370" width="120" height="30" as="geometry" />
        </mxCell>
        <mxCell id="AXFKlg1v9iwPmCaXSnl4-41" value="" style="edgeStyle=orthogonalEdgeStyle;rounded=0;orthogonalLoop=1;jettySize=auto;html=1;" edge="1" parent="WIyWlLk6GJQsqaUBKTNV-1" source="AXFKlg1v9iwPmCaXSnl4-30" target="AXFKlg1v9iwPmCaXSnl4-40">
          <mxGeometry relative="1" as="geometry" />
        </mxCell>
        <mxCell id="AXFKlg1v9iwPmCaXSnl4-30" value="NodeTree" style="rounded=1;whiteSpace=wrap;html=1;fillColor=#FAE5C7;strokeColor=#0F8B8D;fontColor=#143642;glass=0;strokeWidth=1;shadow=0;labelBackgroundColor=none;" vertex="1" parent="WIyWlLk6GJQsqaUBKTNV-1">
          <mxGeometry x="185" y="450" width="120" height="60" as="geometry" />
        </mxCell>
        <mxCell id="AXFKlg1v9iwPmCaXSnl4-43" value="" style="edgeStyle=orthogonalEdgeStyle;rounded=0;orthogonalLoop=1;jettySize=auto;html=1;" edge="1" parent="WIyWlLk6GJQsqaUBKTNV-1" source="AXFKlg1v9iwPmCaXSnl4-40" target="AXFKlg1v9iwPmCaXSnl4-42">
          <mxGeometry relative="1" as="geometry" />
        </mxCell>
        <mxCell id="AXFKlg1v9iwPmCaXSnl4-40" value="API文件模板" style="whiteSpace=wrap;html=1;fillColor=#FAE5C7;strokeColor=#0F8B8D;fontColor=#143642;rounded=1;glass=0;strokeWidth=1;shadow=0;labelBackgroundColor=none;" vertex="1" parent="WIyWlLk6GJQsqaUBKTNV-1">
          <mxGeometry x="185" y="590" width="120" height="60" as="geometry" />
        </mxCell>
        <mxCell id="AXFKlg1v9iwPmCaXSnl4-42" value="生成d.ts文件和api文件" style="whiteSpace=wrap;html=1;fillColor=#FAE5C7;strokeColor=#0F8B8D;fontColor=#143642;rounded=1;glass=0;strokeWidth=1;shadow=0;labelBackgroundColor=none;" vertex="1" parent="WIyWlLk6GJQsqaUBKTNV-1">
          <mxGeometry x="180" y="730" width="130" height="60" as="geometry" />
        </mxCell>
      </root>
    </mxGraphModel>
  </diagram>
</mxfile>
